<?xml version="1.0" encoding="UTF-8" standalone="no"?>
<!-- Created with Inkscape (http://www.inkscape.org/) -->

<svg
   width="163.44032mm"
   height="27.49929mm"
   viewBox="0 0 163.44032 27.49929"
   version="1.1"
   id="svg1"
   xml:space="preserve"
   xmlns="http://www.w3.org/2000/svg"
   xmlns:svg="http://www.w3.org/2000/svg"><defs
     id="defs1" /><g
     id="layer1"
     transform="translate(-362.46568,-447.6945)"><path
       style="font-size:26.0235px;font-family:Coolvetica;-inkscape-font-specification:Coolvetica;stroke:#000000;stroke-width:1.62"
       d="m 376.6506,467.51357 h -4.39797 l 2.94755,-6.87021 h 0.026 z m 5.36412,6.5319 -4.23944,-17.27961 h -4.18978 l -8.01763,17.27961 h 3.82545 l 1.60483,-3.56522 h 6.37576 l 0.71126,3.56522 z m 12.14579,-8.92607 c 0.11317,-2.75849 -1.3963,-4.2158 -5.09164,-4.2158 -3.90352,0 -5.56239,1.63948 -5.79365,3.79943 -0.12259,1.14503 0.1879,2.13393 1.30418,2.88861 0.84953,0.57251 2.00761,0.93684 4.11183,1.45731 1.06513,0.26024 1.99735,0.5465 1.89983,1.45732 -0.10309,0.96287 -1.20907,1.3272 -2.40615,1.3272 -1.63948,0 -2.57917,-0.70264 -2.451,-1.89972 h -3.48715 c -0.22652,2.60235 1.76158,4.45002 5.69112,4.45002 3.64329,0 5.76502,-1.58743 6.04922,-4.24183 0.17832,-1.6655 -0.48163,-2.5503 -1.77635,-3.0968 -0.9471,-0.39035 -2.2957,-0.67661 -3.70843,-1.09298 -1.33745,-0.39036 -2.00665,-0.70264 -1.92585,-1.45732 0.0808,-0.75468 0.8429,-1.06696 2.11805,-1.06696 1.53538,0 2.16463,0.4424 2.21305,1.69152 z m 8.02203,3.82546 c -0.16996,1.58743 -0.89204,2.49826 -2.24526,2.49826 -1.37925,0 -1.85147,-0.93685 -1.67872,-2.55031 l 0.56282,-5.25675 h 7.0784 l 0.25633,-2.39416 h -7.0784 l 0.37057,-3.46112 h -3.331 l -1.22594,11.45034 c -0.29534,2.75849 0.93166,5.15265 4.67904,5.15265 3.61727,0 5.4378,-2.42018 5.72757,-5.12663 l 0.39007,-3.64329 h -3.14885 z m 8.00201,-2.5503 c 0.31957,-1.7696 1.55003,-2.81054 2.90326,-2.81054 1.32719,0 2.4788,0.91082 2.32746,2.81054 z m 8.4894,2.13392 c 0.54331,-5.07458 -1.26552,-7.62488 -5.19507,-7.62488 -3.92955,0 -6.46664,2.5503 -6.89015,6.50587 -0.49595,4.63219 1.38721,6.9743 5.65507,6.9743 2.73247,0 4.99919,-1.48334 6.0613,-4.11171 h -3.48714 c -0.32895,0.8848 -1.35033,1.43129 -2.44331,1.43129 -1.66551,0 -2.62475,-1.24913 -2.52267,-3.17487 z m 3.96343,5.51699 0.71328,-6.66202 c 0.22011,-2.05586 1.34648,-3.0968 3.42836,-3.0968 0.31228,0 0.62178,0.026 0.92848,0.0781 l 0.37057,-3.46112 h -0.4424 c -1.37924,0 -2.69714,0.15614 -4.00004,1.87369 l 0.16439,-1.53539 h -3.17487 l -1.37083,12.80357 z m 10.75491,-2.49826 c -2.05586,0 -2.95748,-1.30118 -2.67886,-3.90353 0.27862,-2.60235 1.45609,-3.8775 3.51195,-3.8775 2.05586,0 2.96027,1.27515 2.68165,3.8775 -0.27862,2.60235 -1.45888,3.90353 -3.51474,3.90353 z m -0.3037,2.83656 c 3.9816,0 6.79287,-2.68042 7.22752,-6.74009 0.43744,-4.08569 -1.77663,-6.74008 -5.78425,-6.74008 -4.05967,0 -6.87092,2.68042 -7.30557,6.74008 -0.4263,3.9816 1.72456,6.74009 5.8623,6.74009 z m 11.48912,-3.27896 0.49873,-4.65821 h 4.63218 c 1.61346,0 2.52991,0.67661 2.36831,2.18598 -0.15046,1.40527 -1.25358,2.47223 -2.91908,2.47223 z m 5.56072,-11.34625 c 1.69153,0 2.33565,0.5465 2.19356,1.8737 -0.13096,1.2231 -0.9553,1.87369 -2.38659,1.87369 h -4.55411 l 0.40122,-3.74739 z m -1.58165,14.28691 c 4.34592,0 6.66837,-2.00381 7.00551,-5.15266 0.26469,-2.47223 -0.78099,-3.64329 -2.1798,-4.18978 1.25002,-0.49445 2.29459,-1.74358 2.4534,-3.22692 0.30928,-2.8886 -1.31734,-4.71025 -4.70039,-4.71025 h -8.50969 l -1.85006,17.27961 z m 18.76292,0 1.37083,-12.80357 h -3.35703 l -0.79129,7.39068 c -0.1811,1.69152 -1.22288,2.91463 -2.94043,2.91463 -1.4313,0 -2.07636,-0.78071 -1.90361,-2.39416 l 0.84701,-7.91115 h -3.38306 l -0.90274,8.43162 c -0.30091,2.81054 1.29131,4.71025 3.84162,4.71025 1.76959,0 3.16924,-0.67661 4.21007,-2.13393 l -0.19226,1.79563 z m 4.94447,0 1.37083,-12.80357 h -3.38306 l -1.37083,12.80357 z m 1.53522,-14.33895 0.33713,-3.14885 h -3.38306 l -0.33713,3.14885 z m 3.3832,14.33895 1.87235,-17.4878 h -3.38305 l -1.87235,17.4878 z m 7.75388,-2.42019 c -1.69153,0 -2.71865,-1.58743 -2.47346,-3.8775 0.28141,-2.62838 1.36036,-3.95557 3.33815,-3.95557 1.87369,0 2.68889,1.37924 2.39076,4.16376 -0.23125,2.15995 -1.64199,3.66931 -3.25545,3.66931 z m 5.80436,2.42019 1.87235,-17.4878 h -3.33101 l -0.67984,6.34974 c -0.81798,-1.35323 -1.99746,-2.00381 -3.58489,-2.00381 -3.30499,0 -5.5493,2.73246 -5.96445,6.60997 -0.46252,4.3199 1.58052,6.8702 4.80744,6.8702 1.56141,0 2.82258,-0.59854 3.76862,-1.89971 l -0.14118,1.56141 z m 5.5034,-7.65091 c 0.31958,-1.7696 1.55004,-2.81054 2.90326,-2.81054 1.3272,0 2.47881,0.91082 2.32747,2.81054 z m 8.48941,2.13392 c 0.54331,-5.07458 -1.26552,-7.62488 -5.19507,-7.62488 -3.92955,0 -6.46665,2.5503 -6.89016,6.50587 -0.49595,4.63219 1.38722,6.9743 5.65507,6.9743 2.73247,0 4.9992,-1.48334 6.06131,-4.11171 h -3.48715 c -0.32894,0.8848 -1.35032,1.43129 -2.44331,1.43129 -1.6655,0 -2.62475,-1.24913 -2.52266,-3.17487 z m 3.96343,5.51699 0.71328,-6.66202 c 0.22011,-2.05586 1.34648,-3.0968 3.42836,-3.0968 0.31228,0 0.62178,0.026 0.92849,0.0781 l 0.37057,-3.46112 h -0.4424 c -1.37925,0 -2.69714,0.15614 -4.00004,1.87369 l 0.16439,-1.53539 h -3.17487 l -1.37083,12.80357 z"
       id="path667"
       aria-label="AsteroBuilder" /><path
       style="font-size:26.0235px;font-family:Coolvetica;-inkscape-font-specification:Coolvetica;stroke:#000000;stroke-width:1.62"
       d="m 374.81719,464.8677 h -4.39797 l 2.94756,-6.8702 h 0.026 z m 5.36413,6.5319 -4.23945,-17.2796 h -4.18978 l -8.01762,17.2796 h 3.82546 l 1.60481,-3.56522 h 6.37576 l 0.71127,3.56522 z m 12.14578,-8.92606 c 0.11317,-2.75849 -1.3963,-4.21581 -5.09164,-4.21581 -3.90352,0 -5.56239,1.63948 -5.79365,3.79943 -0.12259,1.14504 0.1879,2.13393 1.30418,2.88861 0.84954,0.57252 2.00761,0.93685 4.11183,1.45732 1.06513,0.26023 1.99735,0.54649 1.89984,1.45731 -0.1031,0.96287 -1.20907,1.3272 -2.40615,1.3272 -1.63948,0 -2.57918,-0.70263 -2.45101,-1.89971 h -3.48715 c -0.22652,2.60235 1.76159,4.45002 5.69113,4.45002 3.64329,0 5.76502,-1.58744 6.04921,-4.24183 0.17832,-1.66551 -0.48163,-2.55031 -1.77635,-3.0968 -0.94709,-0.39035 -2.29569,-0.67661 -3.70842,-1.09299 -1.33746,-0.39035 -2.00666,-0.70263 -1.92586,-1.45731 0.0808,-0.75469 0.8429,-1.06697 2.11805,-1.06697 1.53539,0 2.16463,0.4424 2.21305,1.69153 z m 8.02203,3.82545 c -0.16996,1.58744 -0.89204,2.49826 -2.24526,2.49826 -1.37925,0 -1.85146,-0.93685 -1.67872,-2.5503 l 0.56282,-5.25675 h 7.0784 l 0.25633,-2.39416 h -7.0784 l 0.37057,-3.46113 h -3.331 l -1.22594,11.45034 c -0.29534,2.75849 0.93167,5.15266 4.67905,5.15266 3.61727,0 5.4378,-2.42019 5.72756,-5.12663 l 0.39008,-3.64329 h -3.14885 z m 8.00201,-2.5503 c 0.31957,-1.7696 1.55003,-2.81054 2.90326,-2.81054 1.3272,0 2.4788,0.91083 2.32746,2.81054 z m 8.4894,2.13393 c 0.54331,-5.07458 -1.26552,-7.62489 -5.19507,-7.62489 -3.92955,0 -6.46664,2.55031 -6.89014,6.50588 -0.49595,4.63218 1.38721,6.9743 5.65507,6.9743 2.73247,0 4.99918,-1.48334 6.06129,-4.11172 h -3.48714 c -0.32895,0.8848 -1.35033,1.4313 -2.44331,1.4313 -1.66551,0 -2.62475,-1.24913 -2.52267,-3.17487 z m 3.96344,5.51698 0.71327,-6.66202 c 0.22011,-2.05585 1.34648,-3.09679 3.42836,-3.09679 0.31228,0 0.62178,0.026 0.92848,0.0781 l 0.37057,-3.46113 h -0.4424 c -1.37924,0 -2.69714,0.15614 -4.00004,1.8737 l 0.16439,-1.53539 h -3.17487 l -1.37083,12.80356 z m 10.75491,-2.49826 c -2.05586,0 -2.95749,-1.30117 -2.67887,-3.90352 0.27862,-2.60235 1.45609,-3.8775 3.51195,-3.8775 2.05586,0 2.96027,1.27515 2.68165,3.8775 -0.27862,2.60235 -1.45887,3.90352 -3.51473,3.90352 z m -0.3037,2.83657 c 3.9816,0 6.79286,-2.68042 7.22751,-6.74009 0.43744,-4.08569 -1.77663,-6.74009 -5.78425,-6.74009 -4.05966,0 -6.87092,2.68042 -7.30557,6.74009 -0.42629,3.9816 1.72457,6.74009 5.86231,6.74009 z m 11.48911,-3.27896 0.49874,-4.65821 h 4.63218 c 1.61346,0 2.5299,0.67661 2.3683,2.18597 -0.15045,1.40527 -1.25358,2.47224 -2.91908,2.47224 z m 5.56072,-11.34625 c 1.69153,0 2.33566,0.54649 2.19356,1.87369 -0.13095,1.22311 -0.95529,1.87369 -2.38659,1.87369 h -4.55411 l 0.40122,-3.74738 z m -1.58164,14.2869 c 4.34592,0 6.66837,-2.00381 7.0055,-5.15265 0.26469,-2.47223 -0.78099,-3.64329 -2.1798,-4.18979 1.25002,-0.49444 2.29459,-1.74357 2.45341,-3.22691 0.30927,-2.88861 -1.31735,-4.71025 -4.7004,-4.71025 h -8.50969 l -1.85005,17.2796 z m 18.76292,0 1.37082,-12.80356 h -3.35703 l -0.79129,7.39067 c -0.1811,1.69153 -1.22287,2.91463 -2.94042,2.91463 -1.4313,0 -2.07637,-0.7807 -1.90362,-2.39416 l 0.84701,-7.91114 h -3.38306 l -0.90274,8.43161 c -0.30091,2.81054 1.29132,4.71026 3.84163,4.71026 1.76959,0 3.16923,-0.67661 4.21006,-2.13393 l -0.19225,1.79562 z m 4.94447,0 1.37082,-12.80356 h -3.38306 l -1.37082,12.80356 z m 1.53521,-14.33895 0.33713,-3.14884 h -3.38306 l -0.33713,3.14884 z m 3.38321,14.33895 1.87234,-17.48779 h -3.38305 l -1.87234,17.48779 z m 7.75388,-2.42018 c -1.69153,0 -2.71865,-1.58744 -2.47346,-3.87751 0.2814,-2.62837 1.36035,-3.95557 3.33814,-3.95557 1.87369,0 2.68889,1.37925 2.39077,4.16376 -0.23126,2.15995 -1.64199,3.66932 -3.25545,3.66932 z m 5.80436,2.42018 1.87234,-17.48779 h -3.33101 l -0.67984,6.34973 c -0.81798,-1.35322 -1.99746,-2.00381 -3.58489,-2.00381 -3.30499,0 -5.5493,2.73247 -5.96445,6.60997 -0.46251,4.3199 1.58053,6.87021 4.80745,6.87021 1.56141,0 2.82257,-0.59854 3.76861,-1.89972 l -0.14117,1.56141 z m 5.50339,-7.65091 c 0.31958,-1.7696 1.55004,-2.81054 2.90326,-2.81054 1.3272,0 2.47881,0.91083 2.32747,2.81054 z m 8.48941,2.13393 c 0.54331,-5.07458 -1.26552,-7.62489 -5.19507,-7.62489 -3.92955,0 -6.46665,2.55031 -6.89015,6.50588 -0.49595,4.63218 1.38722,6.9743 5.65508,6.9743 2.73246,0 4.99918,-1.48334 6.06129,-4.11172 h -3.48715 c -0.32894,0.8848 -1.35032,1.4313 -2.44331,1.4313 -1.6655,0 -2.62475,-1.24913 -2.52266,-3.17487 z m 3.96344,5.51698 0.71327,-6.66202 c 0.22011,-2.05585 1.34648,-3.09679 3.42836,-3.09679 0.31228,0 0.62178,0.026 0.92849,0.0781 l 0.37057,-3.46113 h -0.4424 c -1.37925,0 -2.69714,0.15614 -4.00004,1.8737 l 0.16439,-1.53539 h -3.17487 l -1.37083,12.80356 z"
       id="path687"
       aria-label="AsteroBuilder" /><path
       style="font-size:26.0235px;font-family:Coolvetica;-inkscape-font-specification:Coolvetica;fill:#ffffff;stroke-width:1.41974"
       d="m 374.81719,464.8677 h -4.39797 l 2.94756,-6.8702 h 0.026 z m 5.36413,6.5319 -4.23945,-17.2796 h -4.18978 l -8.01762,17.2796 h 3.82546 l 1.60481,-3.56522 h 6.37576 l 0.71127,3.56522 z m 12.14578,-8.92606 c 0.11317,-2.75849 -1.3963,-4.21581 -5.09164,-4.21581 -3.90352,0 -5.56239,1.63948 -5.79365,3.79943 -0.12259,1.14504 0.1879,2.13393 1.30418,2.88861 0.84954,0.57252 2.00761,0.93685 4.11183,1.45732 1.06513,0.26023 1.99735,0.54649 1.89984,1.45731 -0.1031,0.96287 -1.20907,1.3272 -2.40615,1.3272 -1.63948,0 -2.57918,-0.70263 -2.45101,-1.89971 h -3.48715 c -0.22652,2.60235 1.76159,4.45002 5.69113,4.45002 3.64329,0 5.76502,-1.58744 6.04921,-4.24183 0.17832,-1.66551 -0.48163,-2.55031 -1.77635,-3.0968 -0.94709,-0.39035 -2.29569,-0.67661 -3.70842,-1.09299 -1.33746,-0.39035 -2.00666,-0.70263 -1.92586,-1.45731 0.0808,-0.75469 0.8429,-1.06697 2.11805,-1.06697 1.53539,0 2.16463,0.4424 2.21305,1.69153 z m 8.02203,3.82545 c -0.16996,1.58744 -0.89204,2.49826 -2.24526,2.49826 -1.37925,0 -1.85146,-0.93685 -1.67872,-2.5503 l 0.56282,-5.25675 h 7.0784 l 0.25633,-2.39416 h -7.0784 l 0.37057,-3.46113 h -3.331 l -1.22594,11.45034 c -0.29534,2.75849 0.93167,5.15266 4.67905,5.15266 3.61727,0 5.4378,-2.42019 5.72756,-5.12663 l 0.39008,-3.64329 h -3.14885 z m 8.00201,-2.5503 c 0.31957,-1.7696 1.55003,-2.81054 2.90326,-2.81054 1.3272,0 2.4788,0.91083 2.32746,2.81054 z m 8.4894,2.13393 c 0.54331,-5.07458 -1.26552,-7.62489 -5.19507,-7.62489 -3.92955,0 -6.46664,2.55031 -6.89014,6.50588 -0.49595,4.63218 1.38721,6.9743 5.65507,6.9743 2.73247,0 4.99918,-1.48334 6.06129,-4.11172 h -3.48714 c -0.32895,0.8848 -1.35033,1.4313 -2.44331,1.4313 -1.66551,0 -2.62475,-1.24913 -2.52267,-3.17487 z m 3.96344,5.51698 0.71327,-6.66202 c 0.22011,-2.05585 1.34648,-3.09679 3.42836,-3.09679 0.31228,0 0.62178,0.026 0.92848,0.0781 l 0.37057,-3.46113 h -0.4424 c -1.37924,0 -2.69714,0.15614 -4.00004,1.8737 l 0.16439,-1.53539 h -3.17487 l -1.37083,12.80356 z m 10.75491,-2.49826 c -2.05586,0 -2.95749,-1.30117 -2.67887,-3.90352 0.27862,-2.60235 1.45609,-3.8775 3.51195,-3.8775 2.05586,0 2.96027,1.27515 2.68165,3.8775 -0.27862,2.60235 -1.45887,3.90352 -3.51473,3.90352 z m -0.3037,2.83657 c 3.9816,0 6.79286,-2.68042 7.22751,-6.74009 0.43744,-4.08569 -1.77663,-6.74009 -5.78425,-6.74009 -4.05966,0 -6.87092,2.68042 -7.30557,6.74009 -0.42629,3.9816 1.72457,6.74009 5.86231,6.74009 z m 11.48911,-3.27896 0.49874,-4.65821 h 4.63218 c 1.61346,0 2.5299,0.67661 2.3683,2.18597 -0.15045,1.40527 -1.25358,2.47224 -2.91908,2.47224 z m 5.56072,-11.34625 c 1.69153,0 2.33566,0.54649 2.19356,1.87369 -0.13095,1.22311 -0.95529,1.87369 -2.38659,1.87369 h -4.55411 l 0.40122,-3.74738 z m -1.58164,14.2869 c 4.34592,0 6.66837,-2.00381 7.0055,-5.15265 0.26469,-2.47223 -0.78099,-3.64329 -2.1798,-4.18979 1.25002,-0.49444 2.29459,-1.74357 2.45341,-3.22691 0.30927,-2.88861 -1.31735,-4.71025 -4.7004,-4.71025 h -8.50969 l -1.85005,17.2796 z m 18.76292,0 1.37082,-12.80356 h -3.35703 l -0.79129,7.39067 c -0.1811,1.69153 -1.22287,2.91463 -2.94042,2.91463 -1.4313,0 -2.07637,-0.7807 -1.90362,-2.39416 l 0.84701,-7.91114 h -3.38306 l -0.90274,8.43161 c -0.30091,2.81054 1.29132,4.71026 3.84163,4.71026 1.76959,0 3.16923,-0.67661 4.21006,-2.13393 l -0.19225,1.79562 z m 4.94447,0 1.37082,-12.80356 h -3.38306 l -1.37082,12.80356 z m 1.53521,-14.33895 0.33713,-3.14884 h -3.38306 l -0.33713,3.14884 z m 3.38321,14.33895 1.87234,-17.48779 h -3.38305 l -1.87234,17.48779 z m 7.75388,-2.42018 c -1.69153,0 -2.71865,-1.58744 -2.47346,-3.87751 0.2814,-2.62837 1.36035,-3.95557 3.33814,-3.95557 1.87369,0 2.68889,1.37925 2.39077,4.16376 -0.23126,2.15995 -1.64199,3.66932 -3.25545,3.66932 z m 5.80436,2.42018 1.87234,-17.48779 h -3.33101 l -0.67984,6.34973 c -0.81798,-1.35322 -1.99746,-2.00381 -3.58489,-2.00381 -3.30499,0 -5.5493,2.73247 -5.96445,6.60997 -0.46251,4.3199 1.58053,6.87021 4.80745,6.87021 1.56141,0 2.82257,-0.59854 3.76861,-1.89972 l -0.14117,1.56141 z m 5.50339,-7.65091 c 0.31958,-1.7696 1.55004,-2.81054 2.90326,-2.81054 1.3272,0 2.47881,0.91083 2.32747,2.81054 z m 8.48941,2.13393 c 0.54331,-5.07458 -1.26552,-7.62489 -5.19507,-7.62489 -3.92955,0 -6.46665,2.55031 -6.89015,6.50588 -0.49595,4.63218 1.38722,6.9743 5.65508,6.9743 2.73246,0 4.99918,-1.48334 6.06129,-4.11172 h -3.48715 c -0.32894,0.8848 -1.35032,1.4313 -2.44331,1.4313 -1.6655,0 -2.62475,-1.24913 -2.52266,-3.17487 z m 3.96344,5.51698 0.71327,-6.66202 c 0.22011,-2.05585 1.34648,-3.09679 3.42836,-3.09679 0.31228,0 0.62178,0.026 0.92849,0.0781 l 0.37057,-3.46113 h -0.4424 c -1.37925,0 -2.69714,0.15614 -4.00004,1.8737 l 0.16439,-1.53539 h -3.17487 l -1.37083,12.80356 z"
       id="path707"
       aria-label="AsteroBuilder" /><path
       style="fill:#000000;fill-opacity:1;stroke:none;stroke-width:1.62;stroke-linejoin:miter;stroke-dasharray:none"
       d="m 362.46891,472.20406 1.83357,2.64725 1.59889,-2.8221 z"
       id="path708" /><path
       style="fill:#000000;fill-opacity:1;stroke:none;stroke-width:1.62;stroke-linejoin:miter;stroke-dasharray:none"
       d="m 378.42013,455.97842 -1.83371,-2.66387 0.38818,2.84247 z"
       id="path709" /><path
       style="fill:#000000;fill-opacity:1;stroke:none;stroke-width:1.62;stroke-linejoin:miter;stroke-dasharray:none"
       d="m 377.43167,474.79327 -1.85642,-2.61572 1.92085,-0.18536 z"
       id="path710" /><path
       style="fill:#000000;fill-opacity:1;stroke:none;stroke-width:1.62;stroke-linejoin:miter;stroke-dasharray:none"
       d="m 398.50735,454.33923 1.84081,2.69311 -2.40688,0.13263 z"
       id="path711" /><path
       style="fill:#000000;fill-opacity:1;stroke:none;stroke-width:1.62;stroke-linejoin:miter;stroke-dasharray:none"
       d="m 405.18721,457.80363 1.12055,2.08149 -1.51019,1.19214 z"
       id="path712" /><path
       style="fill:#000000;fill-opacity:1;stroke:none;stroke-width:1.62;stroke-linejoin:miter;stroke-dasharray:none"
       d="m 418.39385,474.82321 -1.85534,-2.64966 2.50055,-0.16456 z"
       id="path713" /><path
       style="fill:#000000;fill-opacity:1;stroke:none;stroke-width:1.62;stroke-linejoin:miter;stroke-dasharray:none"
       d="m 427.82989,458.9991 -0.72999,-1.53702 -0.22914,2.29333 z"
       id="path714" /><path
       style="fill:#000000;fill-opacity:1;stroke:none;stroke-width:1.62;stroke-linejoin:miter;stroke-dasharray:none"
       d="m 439.9289,474.80956 -1.86571,-2.61974 2.82718,-0.17918 z"
       id="path715" /><path
       style="fill:#000000;fill-opacity:1;stroke:none;stroke-width:1.62;stroke-linejoin:miter;stroke-dasharray:none"
       d="m 461.45646,460.49645 -1.85611,-2.70658 -0.45011,3.10619 z"
       id="path716" /><path
       style="fill:#000000;fill-opacity:1;stroke:none;stroke-width:1.62;stroke-linejoin:miter;stroke-dasharray:none"
       d="m 478.0931,453.10312 1.8425,2.67668 -2.2737,0.52727 z"
       id="path717" /><path
       style="fill:#000000;fill-opacity:1;stroke:none;stroke-width:1.62;stroke-linejoin:miter;stroke-dasharray:none"
       d="m 491.65944,453.11474 1.85675,2.66845 -2.35353,0.28532 z"
       id="path718" /><path
       style="fill:#000000;fill-opacity:1;stroke:none;stroke-width:1.62;stroke-linejoin:miter;stroke-dasharray:none"
       d="m 504.41277,474.8593 -1.86947,-2.60662 2.87204,-0.31055 z"
       id="path719" /><path
       style="fill:#000000;fill-opacity:1;stroke:none;stroke-width:1.62;stroke-linejoin:miter;stroke-dasharray:none"
       d="m 513.17165,457.46785 1.8861,2.71161 -2.26373,0.42558 z"
       id="path720" /><path
       id="path721"
       style="fill:#000000;fill-opacity:1;stroke:#000000;stroke-width:0.76491;stroke-linejoin:round"
       d="m 518.6006,449.81816 c 0,0 -1.53313,3.26597 -2.78578,4.2913 -1.60247,1.31168 -5.46209,1.89823 -5.46209,1.89823 0,0 3.73344,0.58678 5.05486,1.89826 1.03336,1.02557 1.86754,4.29217 1.86754,4.29217 0,0 1.53305,-3.26665 2.78585,-4.29217 1.60263,-1.31189 5.46281,-1.89824 5.46281,-1.89824 0,0 -3.73455,-0.58644 -5.05633,-1.89825 -1.03312,-1.02532 -1.86686,-4.2913 -1.86686,-4.2913 z" /><path
       id="path722"
       style="fill:#ffffff;fill-opacity:1;stroke:#000000;stroke-width:0.76491;stroke-linejoin:round"
       d="m 517.51823,448.07685 c 0,0 -1.53313,3.26597 -2.78577,4.2913 -1.60247,1.31168 -5.46209,1.89823 -5.46209,1.89823 0,0 3.73344,0.58677 5.05486,1.89826 1.03335,1.02557 1.86753,4.29217 1.86753,4.29217 0,0 1.53305,-3.26665 2.78586,-4.29217 1.60263,-1.31189 5.46281,-1.89825 5.46281,-1.89825 0,0 -3.73455,-0.58644 -5.05633,-1.89824 -1.03312,-1.02532 -1.86687,-4.2913 -1.86687,-4.2913 z" /><path
       style="fill:#000000;fill-opacity:1;stroke:none;stroke-width:0.787887;stroke-linejoin:round"
       d="m 510.0045,456.14234 -1.08215,-1.69938 0.32598,-0.26079 3.03574,1.28045 z"
       id="path723" /><path
       style="fill:#000000;fill-opacity:1;stroke:none;stroke-width:0.787887;stroke-linejoin:round"
       d="m 516.93885,462.41111 -1.06197,-1.7183 0.92324,-0.489 0.40273,1.06649 z"
       id="path724" /><path
       style="fill:#000000;fill-opacity:1;stroke:none;stroke-width:0.787887;stroke-linejoin:round"
       d="m 518.93539,449.6205 -1.14354,-1.81906 c 0,0 0.21888,1.55185 0.22404,1.5675 0.1041,0.31571 0.9195,0.25156 0.9195,0.25156 z"
       id="path725" /><path
       style="fill:#000000;fill-opacity:1;stroke:none;stroke-width:0.787887;stroke-linejoin:round"
       d="m 525.84328,455.83598 -1.14721,-1.8727 -2.09777,1.13705 z"
       id="path726" /><path
       style="fill:#000000;fill-opacity:1;stroke:none;stroke-width:0.892759;stroke-linejoin:miter;stroke-dasharray:none"
       d="m 416.90615,470.56645 -1.02245,-1.46019 1.37802,-0.0907 z"
       id="path727" /><path
       style="fill:#000000;fill-opacity:1;stroke:none;stroke-width:0.715229;stroke-linejoin:miter;stroke-dasharray:none"
       d="m 502.69068,470.23696 -0.82537,-1.15082 1.268,-0.13711 z"
       id="path728" /></g></svg>
