<?xml version="1.0" encoding="UTF-8" standalone="no"?>
<!-- Created with Inkscape (http://www.inkscape.org/) -->

<svg
   width="275.939"
   height="299.99951"
   viewBox="0 0 73.008857 79.374871"
   version="1.1"
   id="svg1"
   xml:space="preserve"
   xmlns="http://www.w3.org/2000/svg"
   xmlns:svg="http://www.w3.org/2000/svg"><defs
     id="defs1" /><g
     id="layer1"
     transform="translate(144.30716,-278.35004)"><path
       style="baseline-shift:baseline;display:inline;overflow:visible;opacity:1;vector-effect:none;fill:#000000;stroke-width:0.926329;stroke-linecap:round;stroke-linejoin:round;enable-background:accumulate;stop-color:#000000;stop-opacity:1"
       d="m -107.80362,278.35004 c -4.4265,0 -8.48762,2.43633 -12.39328,4.69135 -3.90563,2.25499 -7.81085,4.50973 -11.71663,6.76474 -3.90575,2.255 -8.04693,4.55406 -10.26018,8.38763 -2.21324,3.83352 -2.13309,8.56897 -2.13309,13.07897 v 13.52949 c 0,4.50987 -0.0802,9.24554 2.13309,13.07897 2.21326,3.83341 6.35443,6.13262 10.26018,8.38762 3.90578,2.25502 7.81086,4.50974 11.71663,6.76474 3.90576,2.255 7.96687,4.69141 12.39328,4.69135 4.42634,-1.6e-4 8.487491,-2.43635 12.393261,-4.69135 3.90562,-2.25499 7.81267,-4.50973 11.71844,-6.76474 3.90576,-2.255 8.04513,-4.55421 10.25837,-8.38762 2.21328,-3.83342 2.1349,-8.56897 2.1349,-13.07897 v -13.52949 c 0,-4.51001 0.0782,-9.24556 -2.1349,-13.07897 -2.21312,-3.83361 -6.35262,-6.13262 -10.25837,-8.38763 -3.90578,-2.25501 -7.81086,-4.50974 -11.71663,-6.76474 -3.90576,-2.255 -7.968581,-4.69127 -12.395071,-4.69135 z"
       id="path7" /></g></svg>
